HIERARCHY
ROOT ui
{
	 OFFSET 0 0 0
	 CHANNELS 3 XPosition YPosition Z Position
	 EndSite
	 {
	 OFFSET 0 -1 0
	 }
}
ROOT li
{
	 OFFSET 0 0 0
	 CHANNELS 3 XPosition YPosition Z Position
	 EndSite
	 {
	 OFFSET 0 -1 0
	 }
}
ROOT ul
{
	 OFFSET 0 0 0
	 CHANNELS 3 XPosition YPosition Z Position
	 EndSite
	 {
	 OFFSET 0 -1 0
	 }
}
ROOT ll
{
	 OFFSET 0 0 0
	 CHANNELS 3 XPosition YPosition Z Position
	 EndSite
	 {
	 OFFSET 0 -1 0
	 }
}
ROOT tt
{
	 OFFSET 0 0 0
	 CHANNELS 3 XPosition YPosition Z Position
	 EndSite
	 {
	 OFFSET 0 -1 0
	 }
}
ROOT tb
{
	 OFFSET 0 0 0
	 CHANNELS 3 XPosition YPosition Z Position
	 EndSite
	 {
	 OFFSET 0 -1 0
	 }
}
ROOT td
{
	 OFFSET 0 0 0
	 CHANNELS 3 XPosition YPosition Z Position
	 EndSite
	 {
	 OFFSET 0 -1 0
	 }
}
ROOT v
{
	 OFFSET 0 0 0
	 CHANNELS 3 XPosition YPosition Z Position
	 EndSite
	 {
	 OFFSET 0 -1 0
	 }
}
ROOT bn
{
	 OFFSET 0 0 0
	 CHANNELS 3 XPosition YPosition Z Position
	 EndSite
	 {
	 OFFSET 0 -1 0
	 }
}
MOTION
Frames: 10
Frame Time: 0.002
0.0017699040174484254	7.021769881248475E-4	0		0.49836581420898435	-2.3495869140625	0		-1.0690682373046876	0.021834527969360352	0		-0.7216534423828125	-2.2488994140625	0		1.5117587890625	-0.3930152282714844	0		3.065109619140625	0.20987049865722657	0		4.73640869140625	0.3297804565429687	0		5.62347607421875	0.21574961853027344	0		-0.4203836975097656	5.85640673828125	0		
0.03136689567565918	0.005751568794250489	0		0.525013427734375	-2.34870703125	0		-1.0674830322265625	0.025598842620849608	0		-0.7209439086914062	-2.24526904296875	0		1.5152269287109374	-0.3862679138183594	0		3.036876708984375	0.22236334228515625	0		4.74437060546875	0.35550982666015624	0		5.61749169921875	0.23014849853515626	0		-0.28637271118164065	5.87551806640625	0		
0.0029712409973144532	0.005433388233184814	0		0.4937428894042969	-2.349186279296875	0		-1.073917236328125	0.02144392013549805	0		-0.7261998291015626	-2.247574951171875	0		1.5065950927734375	-0.39536004638671873	0		3.028549072265625	0.21970524597167967	0		4.74210302734375	0.35341033935546873	0		5.6199453125	0.20641578674316408	0		-0.28756625366210936	5.87703857421875	0		
0.022618629455566405	5.953800082206726E-4	0		0.5336500854492188	-2.346439208984375	0		-1.076216552734375	0.021238719940185547	0		-0.7412300415039063	-2.24176513671875	0		1.5041484375	-0.39647573852539064	0		3.0573056640625	0.21669595336914063	0		4.7366904296875	0.33143585205078124	0		5.61116259765625	0.2074154052734375	0		-0.2887880859375	5.87756689453125	0		
-0.004560248851776123	0.0013152339458465576	0		0.45004232788085935	-2.3162275390625	0		-1.0784022216796876	0.02102606201171875	0		-0.7092017822265625	-2.24550244140625	0		1.5018245849609375	-0.39754150390625	0		3.0152109375	0.21758990478515625	0		4.73784375	0.34949578857421876	0		5.60957080078125	0.20327304077148436	0		-0.30316665649414065	5.86626025390625	0		
0.018367141723632813	-5.36998987197876E-4	0		0.5108321838378906	-2.35368994140625	0		-1.0804547119140624	0.020806137084960936	0		-0.77196826171875	-2.247106689453125	0		1.4596710205078125	-0.3960660400390625	0		3.013218505859375	0.21611639404296876	0		4.73264892578125	0.32774700927734374	0		5.61226904296875	0.18197195434570312	0		-0.423553955078125	5.85626025390625	0		
0.023544696807861327	0.005840897083282471	0		0.48837664794921876	-2.34511474609375	0		-1.0742587890625	0.028479721069335936	0		-0.733460693359375	-2.243928955078125	0		1.50372216796875	-0.39157675170898437	0		3.02933154296875	0.2115184326171875	0		4.7180693359375	0.34524652099609376	0		5.612529296875	0.22157925415039062	0		-0.2885697021484375	5.8751708984375	0		
0.043748046875	0.0010495660305023192	0		0.4724168395996094	-2.3155703125	0		-1.080047607421875	0.024296756744384765	0		-0.7477118530273438	-2.239097900390625	0		1.501876953125	-0.3924654235839844	0		3.0238427734375	0.226291748046875	0		4.72751171875	0.3515792236328125	0		5.60542333984375	0.19250286865234376	0		-0.29079782104492186	5.87676220703125	0		
-0.008810344696044923	0.0022147929668426512	0		0.4689532470703125	-2.344145263671875	0		-1.09160400390625	0.025188501358032227	0		-0.7188897094726563	-2.24681005859375	0		1.494109130859375	-0.401211669921875	0		3.008151611328125	0.21230300903320312	0		4.7107587890625	0.330375732421875	0		5.60427880859375	0.18949806213378906	0		-0.29202420043945315	5.8773583984375	0		
0.011731216430664063	-0.002529455900192261	0		0.43840597534179687	-2.319320068359375	0		-1.087069580078125	0.01987240982055664	0		-0.755705078125	-2.24366455078125	0		1.4926236572265625	-0.4019710693359375	0		3.006789794921875	0.21123823547363282	0		4.7094208984375	0.3291087341308594	0		5.6003408203125	0.17476373291015626	0		-0.42650704956054686	5.857716796875	0		
